<svg width="307" height="113" xmlns="http://www.w3.org/2000/svg" xmlns:xlink="http://www.w3.org/1999/xlink"><defs><path id="a" d="M74.118 0l-44.71 112.415L0 112.469 44.709.116z"/><path d="M79.256 92.462H37.698l-6.679 19.444H0L42.6 0h31.759l42.595 111.906H85.935l-6.679-19.444zm-7.715-22.111L58.48 33.097 45.418 70.351h26.123z" id="c"/><path id="e" d="M0 111.906L19 0h28.793l22.41 59.664L92.465 0h28.793l18.994 111.906h-28.941l-9.645-64.413-26.418 64.413H63.672L38.586 47.493l-9.645 64.413z"/></defs><g fill="none" fill-rule="evenodd"><mask id="b" fill="#fff"><use xlink:href="#a"/></mask><use fill="#9B9B9B" xlink:href="#a"/><g mask="url(#b)" fill="#3C414F"><path d="M-1-1h91v121H-1z"/></g><g transform="translate(51)"><mask id="d" fill="#fff"><use xlink:href="#c"/></mask><use fill="#9B9B9B" xlink:href="#c"/><g mask="url(#d)" fill="#3C414F"><path d="M-8-6h125v124H-8z"/></g></g><g transform="translate(166)"><mask id="f" fill="#fff"><use xlink:href="#e"/></mask><use fill="#9B9B9B" xlink:href="#e"/><g mask="url(#f)" fill="#3C414F"><path d="M-17 0h157v130H-17z"/></g></g></g></svg>